<svg width="147" height="24" viewBox="0 0 147 24" fill="none" xmlns="http://www.w3.org/2000/svg">
<path d="M13.9475 5.07318C13.2466 5.77616 13.2466 6.91601 13.9475 7.619L15.2166 8.89191C15.4712 9.14728 15.7832 9.3099 16.1109 9.37978C16.4616 9.45456 16.7845 9.77059 16.6883 10.1163C16.2434 11.7154 15.3895 13.1703 14.2115 14.3365C13.0334 15.5028 11.5718 16.3401 9.97178 16.7653C9.683 16.842 9.42097 16.5757 9.37977 16.2796C9.32769 15.9054 9.15817 15.5445 8.87127 15.2568L7.60217 13.9838C6.90129 13.2808 5.76485 13.2808 5.06397 13.9838L2.52566 16.5297C1.82478 17.2327 1.82478 18.3726 2.52566 19.0755C3.0367 19.5881 3.52271 20.229 4.13983 20.6193C4.80193 21.0187 5.6668 20.9644 6.43948 20.99C7.71553 21.0323 9.70468 20.9469 10.9866 20.6062C13.2539 20.0036 15.3249 18.8171 16.9943 17.1645C18.6638 15.5119 19.8736 13.4504 20.5042 11.1844C20.9243 9.67415 21 8.36072 21 6.55509C21 5.65227 20.9873 4.76143 20.506 4.05708C20.4441 3.96664 20.3732 3.8806 20.2931 3.80026L19.024 2.52724C18.3231 1.82425 17.1866 1.82425 16.4858 2.52724L13.9475 5.07318Z" fill="white"/>
<path d="M10.036 17.0069L10.036 17.0069C11.6783 16.5705 13.1783 15.7111 14.3873 14.5142C15.5964 13.3173 16.4727 11.8243 16.9292 10.1833C17.0048 9.91133 16.9097 9.66223 16.7572 9.48393C16.607 9.30836 16.3891 9.18348 16.163 9.13527C15.8813 9.0752 15.6131 8.93552 15.3936 8.7154L14.1245 7.44249C13.5209 6.83707 13.5209 5.8551 14.1245 5.24969L16.6628 2.70375C17.266 2.09875 18.2437 2.09875 18.8469 2.70374L20.116 3.97677L20.1161 3.9768C20.1852 4.04618 20.2464 4.12033 20.2995 4.19813C20.7301 4.82816 20.75 5.63712 20.75 6.55509C20.75 8.35342 20.6743 9.63997 20.2633 11.1173C19.6444 13.3416 18.4569 15.3649 16.8184 16.9868L16.8184 16.9868C15.18 18.6088 13.1475 19.7732 10.9224 20.3646C9.67575 20.696 7.71538 20.7822 6.44776 20.7402C6.3222 20.736 6.19842 20.7339 6.07589 20.7318C5.80408 20.7271 5.53841 20.7226 5.27306 20.6961C4.89584 20.6583 4.55668 20.5781 4.2712 20.4066C3.98903 20.2277 3.73042 19.9876 3.47319 19.72C3.36972 19.6124 3.26047 19.4935 3.14978 19.3731C2.99981 19.21 2.8472 19.044 2.7027 18.899C2.0991 18.2936 2.0991 17.3116 2.7027 16.7062L5.24101 14.1603C5.8442 13.5553 6.82193 13.5553 7.42512 14.1603C7.42513 14.1603 7.42513 14.1603 7.42513 14.1603L8.69422 15.4333L8.69425 15.4333C8.94146 15.6812 9.08729 15.9917 9.13215 16.314C9.16082 16.52 9.26506 16.7154 9.41772 16.8498C9.57316 16.9867 9.79442 17.0711 10.036 17.0069Z" stroke="white" stroke-opacity="0.3" stroke-width="0.5"/>
<path d="M37.96 16.04H39.08V13.4H41.56V12.36H39.08V9.72H37.96V12.36H35.48V13.4H37.96V16.04ZM42.7669 17H44.1269L48.3669 7.8V6.92H42.2869V8.04H46.9269L42.7669 17ZM53.8113 17H55.1713L58.0513 12.68C58.2113 12.472 58.3553 12.232 58.4833 11.96C58.7233 11.528 58.9313 10.92 58.9313 10.28C58.9313 8.36 57.4113 6.84 55.4913 6.84C53.5713 6.84 52.0513 8.36 52.0513 10.28C52.0513 12.2 53.5713 13.72 55.4913 13.72C55.6673 13.72 55.7793 13.704 55.8913 13.688L56.0513 13.64L53.8113 17ZM57.6513 10.28C57.6513 11.56 56.6913 12.52 55.4913 12.52C54.2913 12.52 53.3313 11.56 53.3313 10.28C53.3313 8.92 54.2913 7.96 55.4913 7.96C56.6913 7.96 57.6513 8.936 57.6513 10.28ZM63.6531 15.96C62.3091 15.96 61.0131 14.696 61.0131 11.96C61.0131 9.224 62.3091 7.96 63.6531 7.96C64.9971 7.96 66.2931 9.224 66.2931 11.96C66.2931 14.696 64.9971 15.96 63.6531 15.96ZM63.6531 17.08C65.7331 17.08 67.5731 15.24 67.5731 11.96C67.5731 8.68 65.7331 6.84 63.6531 6.84C61.5571 6.84 59.7331 8.68 59.7331 11.96C59.7331 15.24 61.5571 17.08 63.6531 17.08ZM72.2863 15.96C70.9423 15.96 69.6463 14.696 69.6463 11.96C69.6463 9.224 70.9423 7.96 72.2863 7.96C73.6303 7.96 74.9263 9.224 74.9263 11.96C74.9263 14.696 73.6303 15.96 72.2863 15.96ZM72.2863 17.08C74.3663 17.08 76.2063 15.24 76.2063 11.96C76.2063 8.68 74.3663 6.84 72.2863 6.84C70.1903 6.84 68.3663 8.68 68.3663 11.96C68.3663 15.24 70.1903 17.08 72.2863 17.08ZM84.0369 15.96C82.6929 15.96 81.3969 14.696 81.3969 11.96C81.3969 9.224 82.6929 7.96 84.0369 7.96C85.3809 7.96 86.6769 9.224 86.6769 11.96C86.6769 14.696 85.3809 15.96 84.0369 15.96ZM84.0369 17.08C86.1169 17.08 87.9569 15.24 87.9569 11.96C87.9569 8.68 86.1169 6.84 84.0369 6.84C81.9409 6.84 80.1169 8.68 80.1169 11.96C80.1169 15.24 81.9409 17.08 84.0369 17.08ZM92.67 15.96C91.326 15.96 90.03 14.696 90.03 11.96C90.03 9.224 91.326 7.96 92.67 7.96C94.014 7.96 95.31 9.224 95.31 11.96C95.31 14.696 94.014 15.96 92.67 15.96ZM92.67 17.08C94.75 17.08 96.59 15.24 96.59 11.96C96.59 8.68 94.75 6.84 92.67 6.84C90.574 6.84 88.75 8.68 88.75 11.96C88.75 15.24 90.574 17.08 92.67 17.08ZM101.303 15.96C99.9591 15.96 98.6631 14.696 98.6631 11.96C98.6631 9.224 99.9591 7.96 101.303 7.96C102.647 7.96 103.943 9.224 103.943 11.96C103.943 14.696 102.647 15.96 101.303 15.96ZM101.303 17.08C103.383 17.08 105.223 15.24 105.223 11.96C105.223 8.68 103.383 6.84 101.303 6.84C99.2071 6.84 97.3831 8.68 97.3831 11.96C97.3831 15.24 99.2071 17.08 101.303 17.08ZM113.054 15.96C111.71 15.96 110.414 14.696 110.414 11.96C110.414 9.224 111.71 7.96 113.054 7.96C114.398 7.96 115.694 9.224 115.694 11.96C115.694 14.696 114.398 15.96 113.054 15.96ZM113.054 17.08C115.134 17.08 116.974 15.24 116.974 11.96C116.974 8.68 115.134 6.84 113.054 6.84C110.958 6.84 109.134 8.68 109.134 11.96C109.134 15.24 110.958 17.08 113.054 17.08ZM121.687 15.96C120.343 15.96 119.047 14.696 119.047 11.96C119.047 9.224 120.343 7.96 121.687 7.96C123.031 7.96 124.327 9.224 124.327 11.96C124.327 14.696 123.031 15.96 121.687 15.96ZM121.687 17.08C123.767 17.08 125.607 15.24 125.607 11.96C125.607 8.68 123.767 6.84 121.687 6.84C119.591 6.84 117.767 8.68 117.767 11.96C117.767 15.24 119.591 17.08 121.687 17.08ZM133.437 15.96C132.093 15.96 130.797 14.696 130.797 11.96C130.797 9.224 132.093 7.96 133.437 7.96C134.781 7.96 136.077 9.224 136.077 11.96C136.077 14.696 134.781 15.96 133.437 15.96ZM133.437 17.08C135.517 17.08 137.357 15.24 137.357 11.96C137.357 8.68 135.517 6.84 133.437 6.84C131.341 6.84 129.517 8.68 129.517 11.96C129.517 15.24 131.341 17.08 133.437 17.08ZM142.071 15.96C140.727 15.96 139.431 14.696 139.431 11.96C139.431 9.224 140.727 7.96 142.071 7.96C143.415 7.96 144.711 9.224 144.711 11.96C144.711 14.696 143.415 15.96 142.071 15.96ZM142.071 17.08C144.151 17.08 145.991 15.24 145.991 11.96C145.991 8.68 144.151 6.84 142.071 6.84C139.975 6.84 138.151 8.68 138.151 11.96C138.151 15.24 139.975 17.08 142.071 17.08Z" fill="white"/>
</svg>
