<svg width="320" height="288" viewBox="0 0 320 288" fill="none" xmlns="http://www.w3.org/2000/svg">
<path d="M0 32C0 20.7989 0 15.1984 2.17987 10.9202C4.09734 7.15695 7.15695 4.09734 10.9202 2.17987C15.1984 0 20.799 0 32 0H288C299.201 0 304.802 0 309.08 2.17987C312.843 4.09734 315.903 7.15695 317.82 10.9202C320 15.1984 320 20.799 320 32V288H0V32Z" fill="#F51B1B"/>
<path d="M25.2 40.4V42H28.2V40.4H29.3C30.38 40.4 31.36 40.26 32.24 39.98C33.12 39.7 33.86 39.28 34.5 38.72C35.14 38.18 35.62 37.52 35.98 36.74C36.32 35.98 36.5 35.1 36.5 34.1C36.5 33.14 36.32 32.26 35.98 31.48C35.62 30.7 35.14 30.04 34.5 29.48C33.86 28.94 33.12 28.52 32.24 28.24C31.36 27.96 30.38 27.8 29.3 27.8H28.2V26.2H25.2V27.8H24.1C23.02 27.8 22.04 27.96 21.16 28.24C20.28 28.52 19.52 28.94 18.88 29.48C18.24 30.04 17.76 30.7 17.42 31.48C17.06 32.26 16.9 33.14 16.9 34.1C16.9 35.1 17.06 35.98 17.42 36.74C17.76 37.52 18.24 38.18 18.88 38.72C19.52 39.28 20.28 39.7 21.16 39.98C22.04 40.26 23.02 40.4 24.1 40.4H25.2ZM25.2 37.7H24.1C22.84 37.7 21.84 37.4 21.1 36.78C20.36 36.18 20 35.28 20 34.1C20 32.94 20.36 32.04 21.1 31.42C21.84 30.82 22.84 30.5 24.1 30.5H25.2V37.7ZM29.3 37.7H28.2V30.5H29.3C30.54 30.5 31.54 30.82 32.28 31.42C33.02 32.04 33.4 32.94 33.4 34.1C33.4 35.28 33.02 36.18 32.28 36.78C31.54 37.4 30.54 37.7 29.3 37.7ZM38.2063 31V44.8H40.9063V39.1H41.0063C41.4063 39.84 41.9263 40.38 42.6063 40.7C43.2863 41.04 44.1463 41.2 45.2063 41.2C45.9463 41.2 46.6463 41.08 47.2863 40.84C47.9263 40.6 48.4663 40.26 48.9263 39.82C49.3863 39.38 49.7463 38.86 50.0063 38.24C50.2663 37.64 50.4063 36.96 50.4063 36.2C50.4063 35.4 50.2863 34.68 50.0663 34.02C49.8463 33.36 49.5063 32.78 49.0663 32.3C48.6263 31.82 48.0463 31.46 47.3663 31.2C46.6663 30.94 45.8463 30.8 44.9063 30.8C44.3063 30.8 43.6863 30.88 43.0663 31C42.4463 31.14 41.7663 31.34 41.0063 31.6V31H38.2063ZM41.0063 35.6V34.2C41.5063 33.94 42.0463 33.72 42.6263 33.56C43.2063 33.4 43.8063 33.3 44.4063 33.3C45.4663 33.3 46.2463 33.52 46.7463 33.96C47.2463 34.4 47.5063 35.08 47.5063 36C47.5063 36.42 47.4463 36.8 47.3463 37.12C47.2263 37.46 47.0663 37.74 46.8263 37.98C46.5863 38.22 46.2463 38.4 45.8463 38.52C45.4463 38.64 44.9463 38.7 44.3463 38.7C43.2663 38.7 42.4463 38.44 41.8663 37.9C41.2863 37.36 41.0063 36.6 41.0063 35.6ZM51.6055 36C51.6055 36.8 51.7455 37.52 52.0255 38.16C52.3055 38.8 52.7055 39.36 53.2255 39.8C53.7455 40.26 54.3855 40.6 55.1455 40.84C55.9055 41.08 56.7455 41.2 57.7055 41.2C58.6455 41.2 59.4855 41.08 60.2455 40.84C61.0055 40.6 61.6455 40.26 62.1655 39.8C62.6855 39.36 63.1055 38.8 63.3855 38.16C63.6655 37.52 63.8055 36.8 63.8055 36C63.8055 35.2 63.6655 34.48 63.3855 33.84C63.1055 33.2 62.6855 32.66 62.1655 32.2C61.6455 31.76 61.0055 31.4 60.2455 31.16C59.4855 30.92 58.6455 30.8 57.7055 30.8C56.7455 30.8 55.9055 30.92 55.1455 31.16C54.3855 31.4 53.7455 31.76 53.2255 32.2C52.7055 32.66 52.3055 33.2 52.0255 33.84C51.7455 34.48 51.6055 35.2 51.6055 36ZM54.5055 36C54.5055 34.2 55.5655 33.3 57.7055 33.3C59.8255 33.3 60.9055 34.2 60.9055 36C60.9055 37.8 59.8255 38.7 57.7055 38.7C55.5655 38.7 54.5055 37.8 54.5055 36ZM65.4141 31V41H68.2141V37.4H73.7141V41H76.5141V31H73.7141V34.8H68.2141V31H65.4141ZM81.3102 33.6V41H84.1102V33.6H87.9102V31H77.5102V33.6H81.3102ZM88.5109 36C88.5109 36.8 88.6509 37.52 88.9309 38.16C89.2109 38.8 89.6109 39.36 90.1309 39.8C90.6509 40.26 91.2909 40.6 92.0509 40.84C92.8109 41.08 93.6509 41.2 94.6109 41.2C95.5509 41.2 96.3909 41.08 97.1509 40.84C97.9109 40.6 98.5509 40.26 99.0709 39.8C99.5909 39.36 100.011 38.8 100.291 38.16C100.571 37.52 100.711 36.8 100.711 36C100.711 35.2 100.571 34.48 100.291 33.84C100.011 33.2 99.5909 32.66 99.0709 32.2C98.5509 31.76 97.9109 31.4 97.1509 31.16C96.3909 30.92 95.5509 30.8 94.6109 30.8C93.6509 30.8 92.8109 30.92 92.0509 31.16C91.2909 31.4 90.6509 31.76 90.1309 32.2C89.6109 32.66 89.2109 33.2 88.9309 33.84C88.6509 34.48 88.5109 35.2 88.5109 36ZM91.4109 36C91.4109 34.2 92.4709 33.3 94.6109 33.3C96.7309 33.3 97.8109 34.2 97.8109 36C97.8109 37.8 96.7309 38.7 94.6109 38.7C92.4709 38.7 91.4109 37.8 91.4109 36ZM102.32 31V41H109.22C110.62 41 111.64 40.76 112.32 40.26C112.98 39.76 113.32 39 113.32 38C113.32 37.5 113.22 37.1 113.02 36.8C112.82 36.5 112.6 36.26 112.36 36.06C112.08 35.86 111.76 35.72 111.42 35.6V35.5C111.66 35.42 111.86 35.3 112.06 35.14C112.22 35.02 112.36 34.84 112.5 34.6C112.64 34.36 112.72 34.06 112.72 33.7C112.72 32.86 112.38 32.2 111.7 31.72C111.02 31.24 109.96 31 108.52 31H102.32ZM108.42 34.9H105.12V33.1H108.42C108.92 33.1 109.28 33.18 109.5 33.32C109.7 33.48 109.82 33.7 109.82 34C109.82 34.32 109.7 34.54 109.5 34.68C109.28 34.84 108.92 34.9 108.42 34.9ZM108.9 38.9H105.12V36.9H108.9C109.9 36.9 110.42 37.24 110.42 37.9C110.42 38.58 109.9 38.9 108.9 38.9ZM119.513 27.2V41H127.813C128.833 41 129.693 40.9 130.413 40.68C131.133 40.46 131.713 40.16 132.153 39.8C132.593 39.44 132.913 39 133.113 38.52C133.313 38.04 133.413 37.52 133.413 37C133.413 36.32 133.273 35.76 133.013 35.32C132.733 34.9 132.453 34.56 132.153 34.32C131.793 34.04 131.373 33.84 130.913 33.72V33.58C131.233 33.46 131.513 33.3 131.753 33.06C131.953 32.88 132.153 32.62 132.333 32.3C132.513 31.98 132.613 31.58 132.613 31.1C132.613 30.58 132.513 30.1 132.353 29.62C132.173 29.14 131.893 28.72 131.513 28.36C131.133 28 130.633 27.72 130.033 27.52C129.433 27.32 128.693 27.2 127.813 27.2H119.513ZM126.913 32.7H122.513V29.8H126.913C127.853 29.8 128.513 29.94 128.873 30.18C129.233 30.44 129.413 30.8 129.413 31.24C129.413 31.72 129.233 32.08 128.873 32.32C128.513 32.58 127.853 32.7 126.913 32.7ZM127.713 38.4H122.513V35.3H127.713C128.653 35.3 129.313 35.46 129.673 35.76C130.033 36.08 130.213 36.44 130.213 36.84C130.213 37.28 130.033 37.64 129.673 37.94C129.313 38.26 128.653 38.4 127.713 38.4ZM135.104 31V41H138.304L143.484 34.56H143.604V41H146.404V31H143.204L138.024 37.44H137.904V31H135.104ZM151.195 33.6V41H153.995V33.6H157.795V31H147.395V33.6H151.195ZM159.356 31.56V34.16C159.836 34 160.276 33.84 160.676 33.72C161.076 33.6 161.436 33.5 161.796 33.42C162.156 33.34 162.496 33.3 162.816 33.26C163.136 33.22 163.476 33.2 163.816 33.2C164.576 33.2 165.176 33.3 165.616 33.5C166.056 33.7 166.336 34 166.496 34.4L162.476 34.66C161.096 34.76 160.056 35.08 159.356 35.64C158.636 36.2 158.296 36.98 158.296 37.98C158.296 39 158.656 39.8 159.376 40.36C160.096 40.92 161.176 41.2 162.596 41.2C163.716 41.2 164.556 41.02 165.116 40.64C165.676 40.28 166.116 39.72 166.396 39H166.496V41H169.196V35C169.196 33.64 168.776 32.6 167.976 31.88C167.156 31.16 165.996 30.8 164.496 30.8C163.816 30.8 163.036 30.86 162.136 30.98C161.216 31.1 160.296 31.3 159.356 31.56ZM162.676 36.7L166.476 36.46C166.436 37.24 166.116 37.84 165.516 38.24C164.916 38.66 164.096 38.86 163.016 38.86C162.336 38.86 161.836 38.78 161.536 38.6C161.236 38.42 161.096 38.16 161.096 37.8C161.096 37.12 161.616 36.76 162.676 36.7ZM170.091 38.52V41.12C170.171 41.14 170.251 41.16 170.351 41.16C170.431 41.18 170.511 41.2 170.631 41.2C170.731 41.2 170.851 41.2 170.991 41.2C171.591 41.2 172.131 41.14 172.591 41C173.051 40.86 173.451 40.62 173.791 40.28C174.111 39.96 174.391 39.52 174.631 38.96C174.871 38.4 175.071 37.72 175.251 36.88L175.931 33.6H179.191V41H181.991V31H173.591L172.711 35.42C172.571 36.1 172.431 36.64 172.291 37.04C172.151 37.46 171.991 37.78 171.831 38C171.651 38.22 171.451 38.36 171.251 38.44C171.031 38.52 170.791 38.54 170.511 38.54H170.231C170.171 38.54 170.131 38.54 170.091 38.52ZM183.992 31V41H187.192L192.372 34.56H192.492V41H195.292V31H192.092L186.912 37.44H186.792V31H183.992ZM199.344 26.8V29.1C199.744 29.3 200.224 29.46 200.824 29.6C201.404 29.74 202.104 29.8 202.944 29.8C203.764 29.8 204.464 29.74 205.064 29.6C205.644 29.46 206.144 29.3 206.544 29.1V26.8C206.144 26.96 205.664 27.1 205.104 27.24C204.544 27.38 203.824 27.44 202.944 27.44C202.484 27.44 202.084 27.42 201.724 27.38C201.364 27.34 201.044 27.3 200.764 27.24C200.484 27.18 200.224 27.12 199.984 27.04C199.744 26.96 199.544 26.88 199.344 26.8ZM197.284 31V41H200.484L205.664 34.56H205.784V41H208.584V31H205.384L200.204 37.44H200.084V31H197.284Z" fill="white"/>
<path d="M16.72 67H22.96V65.88H18.4L21.6 62.36C21.856 62.104 22.08 61.832 22.272 61.544C22.608 61.048 22.96 60.36 22.96 59.64C22.96 58.12 21.68 56.84 19.84 56.84C18 56.84 16.64 58.2 16.64 59.88H17.92C17.92 58.744 18.704 57.96 19.84 57.96C20.976 57.96 21.68 58.68 21.68 59.64C21.68 60.168 21.44 60.664 21.2 61.032C21.056 61.24 20.896 61.448 20.72 61.64L16.72 66.04V67ZM23.375 64.84H27.855V67H29.135V64.84H30.255V63.72H29.135V56.92H27.615L23.375 63.8V64.84ZM24.815 63.72L27.855 58.76V63.72H24.815ZM34.58 67H35.78V60.92H39.3V59.8H34.58V67ZM42.9056 65.96C41.7856 65.96 40.7456 64.936 40.7456 63.4C40.7456 61.864 41.7856 60.84 42.9056 60.84C44.0096 60.84 45.0656 61.864 45.0656 63.4C45.0656 64.936 44.0096 65.96 42.9056 65.96ZM42.9056 67.08C44.7616 67.08 46.2656 65.56 46.2656 63.4C46.2656 61.24 44.7616 59.72 42.9056 59.72C41.0496 59.72 39.5456 61.24 39.5456 63.4C39.5456 65.56 41.0496 67.08 42.9056 67.08ZM46.5094 68.76H47.6294V67H52.9094V68.76H54.0294V65.88H53.0694V59.8H48.3494L47.8694 64.28C47.8054 64.808 47.5814 65.192 47.3414 65.464C47.2134 65.624 47.0694 65.768 46.9094 65.88H46.5094V68.76ZM48.3494 65.88C48.4614 65.768 48.5574 65.624 48.6694 65.464C48.8454 65.192 49.0214 64.808 49.0694 64.28L49.4214 60.92H51.8694V65.88H48.3494ZM59.6331 67H60.5131V62.2C60.5131 60.856 59.3931 59.72 57.7931 59.72C56.1931 59.72 55.2491 60.68 55.0731 61.88H56.3531C56.5291 61.24 56.8971 60.84 57.7931 60.84C58.6891 60.84 59.3131 61.48 59.3131 62.2V62.6C55.7131 62.6 54.7531 63.56 54.7531 64.92C54.7531 66.12 55.7131 67.08 57.1531 67.08C57.8731 67.08 58.4011 66.888 58.7691 66.648C58.9771 66.52 59.1531 66.376 59.3131 66.2L59.6331 67ZM59.3131 64.28C59.3131 65.08 58.4331 65.96 57.1531 65.96C56.4331 65.96 55.9531 65.496 55.9531 65C55.9531 64.2 56.4331 63.72 59.3131 63.72V64.28ZM62.0306 68.52C62.2706 68.376 62.4786 68.184 62.6706 67.976C62.9906 67.608 63.3106 67.048 63.3106 66.28C63.3106 65.784 63.0066 65.48 62.5106 65.48C62.0146 65.48 61.7106 65.784 61.7106 66.28C61.7106 66.776 62.0146 67.08 62.5106 67.08C62.4626 67.448 62.3026 67.736 62.1586 67.944C62.0786 68.056 61.9826 68.168 61.8706 68.28L62.0306 68.52ZM67.9469 67H71.7869C73.6269 67 74.9869 65.608 74.9869 64.12C74.9869 63.208 74.6029 62.568 74.2189 62.184C73.9949 61.96 73.7389 61.784 73.4669 61.64C73.6749 61.528 73.8509 61.368 74.0269 61.176C74.2989 60.856 74.5869 60.36 74.5869 59.64C74.5869 58.104 73.3709 56.92 71.7069 56.92H67.9469V67ZM69.2269 61.16V58.04H71.7069C72.6669 58.04 73.3869 58.76 73.3869 59.64C73.3869 60.44 72.6669 61.16 71.7069 61.16H69.2269ZM69.2269 65.88V62.28H71.7869C72.8909 62.28 73.7069 63.096 73.7069 64.04C73.7069 65.08 72.9229 65.88 71.7869 65.88H69.2269ZM79.22 65.96C78.1 65.96 77.06 64.936 77.06 63.4C77.06 61.864 78.1 60.84 79.22 60.84C80.324 60.84 81.38 61.864 81.38 63.4C81.38 64.936 80.324 65.96 79.22 65.96ZM79.22 67.08C81.076 67.08 82.58 65.56 82.58 63.4C82.58 61.24 81.076 59.72 79.22 59.72C77.364 59.72 75.86 61.24 75.86 63.4C75.86 65.56 77.364 67.08 79.22 67.08ZM87.1438 65.96C85.9438 65.96 84.9038 64.936 84.9038 63.4C84.9038 61.864 85.9438 60.84 87.1438 60.84C88.3438 60.84 89.3838 61.864 89.3838 63.4C89.3838 64.936 88.3438 65.96 87.1438 65.96ZM83.8638 69.56H85.0638V66.12C85.2078 66.296 85.3998 66.456 85.6078 66.6C85.9758 66.84 86.5038 67.08 87.2238 67.08C89.0798 67.08 90.5838 65.56 90.5838 63.4C90.5838 61.24 89.0798 59.72 87.2238 59.72C86.5038 59.72 85.9758 59.928 85.6078 60.168C85.3998 60.296 85.2078 60.44 85.0638 60.6L84.7438 59.8H83.8638V69.56ZM94.7363 65.96C93.6163 65.96 92.5763 64.936 92.5763 63.4C92.5763 61.864 93.6163 60.84 94.7363 60.84C95.8403 60.84 96.8963 61.864 96.8963 63.4C96.8963 64.936 95.8403 65.96 94.7363 65.96ZM94.7363 67.08C96.5923 67.08 98.0963 65.56 98.0963 63.4C98.0963 61.24 96.5923 59.72 94.7363 59.72C92.8803 59.72 91.3763 61.24 91.3763 63.4C91.3763 65.56 92.8803 67.08 94.7363 67.08ZM99.38 67H100.58V63.88H104.26V67H105.46V59.8H104.26V62.76H100.58V59.8H99.38V67ZM111.936 65.08C111.696 65.416 111.12 65.96 110.176 65.96C109.04 65.96 108.096 65 108.016 63.96H113.296L113.328 63.784C113.344 63.672 113.376 63.528 113.376 63.32C113.376 61.144 111.856 59.72 110.096 59.72C108.352 59.72 106.736 61.24 106.736 63.4C106.736 65.56 108.256 67.08 110.176 67.08C111.776 67.08 112.736 66.12 113.216 65.08H111.936ZM108.016 62.92C108.192 61.72 109.056 60.84 110.096 60.84C111.136 60.84 112 61.72 112.176 62.92H108.016ZM113.542 67H114.982L117.782 63.24V67H118.982V63.24L121.782 67H123.222L120.342 63.16L122.902 59.8H121.542L118.982 63.24V59.8H117.782V63.24L115.222 59.8H113.862L116.422 63.16L113.542 67Z" fill="white"/>
<path d="M29.9475 109.073C29.2466 109.776 29.2466 110.916 29.9475 111.619L31.2166 112.892C31.4712 113.147 31.7832 113.31 32.1109 113.38C32.4616 113.455 32.7845 113.771 32.6883 114.116C32.2434 115.715 31.3895 117.17 30.2115 118.336C29.0334 119.503 27.5718 120.34 25.9718 120.765C25.683 120.842 25.421 120.576 25.3798 120.28C25.3277 119.905 25.1582 119.545 24.8713 119.257L23.6022 117.984C22.9013 117.281 21.7649 117.281 21.064 117.984L18.5257 120.53C17.8248 121.233 17.8248 122.373 18.5257 123.076C19.0367 123.588 19.5227 124.229 20.1398 124.619C20.8019 125.019 21.6668 124.964 22.4395 124.99C23.7155 125.032 25.7047 124.947 26.9866 124.606C29.2539 124.004 31.3249 122.817 32.9943 121.164C34.6638 119.512 35.8736 117.45 36.5042 115.184C36.9243 113.674 37 112.361 37 110.555C37 109.652 36.9873 108.761 36.506 108.057C36.4441 107.967 36.3732 107.881 36.2931 107.8L35.024 106.527C34.3231 105.824 33.1866 105.824 32.4858 106.527L29.9475 109.073Z" fill="white"/>
<path d="M26.036 121.007L26.036 121.007C25.7944 121.071 25.5732 120.987 25.4177 120.85C25.2651 120.715 25.1608 120.52 25.1322 120.314C25.0873 119.992 24.9415 119.681 24.6943 119.433L24.6942 119.433L23.4251 118.16C23.4251 118.16 23.4251 118.16 23.4251 118.16C22.8219 117.555 21.8442 117.555 21.241 118.16L18.7027 120.706C18.0991 121.312 18.0991 122.294 18.7027 122.899C18.8472 123.044 18.9998 123.21 19.1498 123.373C19.2605 123.494 19.3697 123.612 19.4732 123.72C19.7304 123.988 19.9891 124.228 20.2713 124.407C20.5567 124.578 20.8959 124.658 21.2731 124.696C21.5384 124.723 21.8041 124.727 22.0759 124.732C22.1984 124.734 22.3222 124.736 22.4478 124.74C23.7154 124.782 25.6757 124.696 26.9224 124.365C29.1475 123.773 31.18 122.609 32.8184 120.987L32.8184 120.987C34.4569 119.365 35.6444 117.342 36.2633 115.117C36.6744 113.64 36.75 112.353 36.75 110.555C36.75 109.637 36.7301 108.828 36.2995 108.198C36.2464 108.12 36.1852 108.046 36.116 107.977L36.116 107.977L34.8469 106.704C34.2437 106.099 33.266 106.099 32.6628 106.704L30.1245 109.25C29.5209 109.855 29.5209 110.837 30.1245 111.442L31.3936 112.715C31.6131 112.936 31.8813 113.075 32.163 113.135C32.3891 113.183 32.607 113.308 32.7572 113.484L26.036 121.007ZM26.036 121.007C27.6783 120.57 29.1783 119.711 30.3874 118.514M26.036 121.007L30.3874 118.514M30.3874 118.514C31.5964 117.317 32.4727 115.824 32.9292 114.183L30.3874 118.514Z" stroke="white" stroke-opacity="0.3" stroke-width="0.5"/>
<path d="M53.96 120.04H55.08V117.4H57.56V116.36H55.08V113.72H53.96V116.36H51.48V117.4H53.96V120.04ZM58.7669 121H60.1269L64.3669 111.8V110.92H58.2869V112.04H62.9269L58.7669 121ZM69.8113 121H71.1713L74.0513 116.68C74.2113 116.472 74.3553 116.232 74.4833 115.96C74.7233 115.528 74.9313 114.92 74.9313 114.28C74.9313 112.36 73.4113 110.84 71.4913 110.84C69.5713 110.84 68.0513 112.36 68.0513 114.28C68.0513 116.2 69.5713 117.72 71.4913 117.72C71.6673 117.72 71.7793 117.704 71.8913 117.688L72.0513 117.64L69.8113 121ZM73.6513 114.28C73.6513 115.56 72.6913 116.52 71.4913 116.52C70.2913 116.52 69.3313 115.56 69.3313 114.28C69.3313 112.92 70.2913 111.96 71.4913 111.96C72.6913 111.96 73.6513 112.936 73.6513 114.28ZM79.6531 119.96C78.3091 119.96 77.0131 118.696 77.0131 115.96C77.0131 113.224 78.3091 111.96 79.6531 111.96C80.9971 111.96 82.2931 113.224 82.2931 115.96C82.2931 118.696 80.9971 119.96 79.6531 119.96ZM79.6531 121.08C81.7331 121.08 83.5731 119.24 83.5731 115.96C83.5731 112.68 81.7331 110.84 79.6531 110.84C77.5571 110.84 75.7331 112.68 75.7331 115.96C75.7331 119.24 77.5571 121.08 79.6531 121.08ZM88.2863 119.96C86.9423 119.96 85.6463 118.696 85.6463 115.96C85.6463 113.224 86.9423 111.96 88.2863 111.96C89.6303 111.96 90.9263 113.224 90.9263 115.96C90.9263 118.696 89.6303 119.96 88.2863 119.96ZM88.2863 121.08C90.3663 121.08 92.2063 119.24 92.2063 115.96C92.2063 112.68 90.3663 110.84 88.2863 110.84C86.1903 110.84 84.3663 112.68 84.3663 115.96C84.3663 119.24 86.1903 121.08 88.2863 121.08ZM100.037 119.96C98.6929 119.96 97.3969 118.696 97.3969 115.96C97.3969 113.224 98.6929 111.96 100.037 111.96C101.381 111.96 102.677 113.224 102.677 115.96C102.677 118.696 101.381 119.96 100.037 119.96ZM100.037 121.08C102.117 121.08 103.957 119.24 103.957 115.96C103.957 112.68 102.117 110.84 100.037 110.84C97.9409 110.84 96.1169 112.68 96.1169 115.96C96.1169 119.24 97.9409 121.08 100.037 121.08ZM108.67 119.96C107.326 119.96 106.03 118.696 106.03 115.96C106.03 113.224 107.326 111.96 108.67 111.96C110.014 111.96 111.31 113.224 111.31 115.96C111.31 118.696 110.014 119.96 108.67 119.96ZM108.67 121.08C110.75 121.08 112.59 119.24 112.59 115.96C112.59 112.68 110.75 110.84 108.67 110.84C106.574 110.84 104.75 112.68 104.75 115.96C104.75 119.24 106.574 121.08 108.67 121.08ZM117.303 119.96C115.959 119.96 114.663 118.696 114.663 115.96C114.663 113.224 115.959 111.96 117.303 111.96C118.647 111.96 119.943 113.224 119.943 115.96C119.943 118.696 118.647 119.96 117.303 119.96ZM117.303 121.08C119.383 121.08 121.223 119.24 121.223 115.96C121.223 112.68 119.383 110.84 117.303 110.84C115.207 110.84 113.383 112.68 113.383 115.96C113.383 119.24 115.207 121.08 117.303 121.08ZM129.054 119.96C127.71 119.96 126.414 118.696 126.414 115.96C126.414 113.224 127.71 111.96 129.054 111.96C130.398 111.96 131.694 113.224 131.694 115.96C131.694 118.696 130.398 119.96 129.054 119.96ZM129.054 121.08C131.134 121.08 132.974 119.24 132.974 115.96C132.974 112.68 131.134 110.84 129.054 110.84C126.958 110.84 125.134 112.68 125.134 115.96C125.134 119.24 126.958 121.08 129.054 121.08ZM137.687 119.96C136.343 119.96 135.047 118.696 135.047 115.96C135.047 113.224 136.343 111.96 137.687 111.96C139.031 111.96 140.327 113.224 140.327 115.96C140.327 118.696 139.031 119.96 137.687 119.96ZM137.687 121.08C139.767 121.08 141.607 119.24 141.607 115.96C141.607 112.68 139.767 110.84 137.687 110.84C135.591 110.84 133.767 112.68 133.767 115.96C133.767 119.24 135.591 121.08 137.687 121.08ZM149.437 119.96C148.093 119.96 146.797 118.696 146.797 115.96C146.797 113.224 148.093 111.96 149.437 111.96C150.781 111.96 152.077 113.224 152.077 115.96C152.077 118.696 150.781 119.96 149.437 119.96ZM149.437 121.08C151.517 121.08 153.357 119.24 153.357 115.96C153.357 112.68 151.517 110.84 149.437 110.84C147.341 110.84 145.517 112.68 145.517 115.96C145.517 119.24 147.341 121.08 149.437 121.08ZM158.071 119.96C156.727 119.96 155.431 118.696 155.431 115.96C155.431 113.224 156.727 111.96 158.071 111.96C159.415 111.96 160.711 113.224 160.711 115.96C160.711 118.696 159.415 119.96 158.071 119.96ZM158.071 121.08C160.151 121.08 161.991 119.24 161.991 115.96C161.991 112.68 160.151 110.84 158.071 110.84C155.975 110.84 154.151 112.68 154.151 115.96C154.151 119.24 155.975 121.08 158.071 121.08Z" fill="white"/>
<mask id="path-7-inside-1_64_608" fill="white">
<path fill-rule="evenodd" clip-rule="evenodd" d="M18.0001 151.151V160C18.0001 161.657 19.3433 163 21.0001 163H35.0001C36.657 163 38.0001 161.657 38.0001 160V151.152L30.7279 158.424C29.2216 159.931 26.7794 159.931 25.2731 158.424L18.0001 151.151ZM37.5725 149.651C37.5316 149.762 37.4653 149.869 37.3706 149.963L29.8188 157.515C28.8146 158.519 27.1864 158.519 26.1822 157.515L18.6304 149.963C18.5355 149.868 18.4691 149.762 18.4283 149.65C18.8889 148.957 19.6769 148.5 20.5716 148.5H35.4288C36.3237 148.5 37.1119 148.957 37.5725 149.651Z"/>
</mask>
<path fill-rule="evenodd" clip-rule="evenodd" d="M18.0001 151.151V160C18.0001 161.657 19.3433 163 21.0001 163H35.0001C36.657 163 38.0001 161.657 38.0001 160V151.152L30.7279 158.424C29.2216 159.931 26.7794 159.931 25.2731 158.424L18.0001 151.151ZM37.5725 149.651C37.5316 149.762 37.4653 149.869 37.3706 149.963L29.8188 157.515C28.8146 158.519 27.1864 158.519 26.1822 157.515L18.6304 149.963C18.5355 149.868 18.4691 149.762 18.4283 149.65C18.8889 148.957 19.6769 148.5 20.5716 148.5H35.4288C36.3237 148.5 37.1119 148.957 37.5725 149.651Z" fill="white"/>
<path d="M18.0001 151.151L18.3537 150.798L17.5001 149.944V151.151H18.0001ZM38.0001 151.152H38.5001V149.945L37.6466 150.798L38.0001 151.152ZM30.7279 158.424L31.0815 158.778H31.0815L30.7279 158.424ZM25.2731 158.424L24.9195 158.778L25.2731 158.424ZM37.3706 149.963L37.7241 150.317L37.7241 150.317L37.3706 149.963ZM37.5725 149.651L38.0418 149.823L38.1292 149.585L37.989 149.374L37.5725 149.651ZM29.8188 157.515L29.4652 157.162L29.8188 157.515ZM26.1822 157.515L25.8287 157.869L26.1822 157.515ZM18.6304 149.963L18.9839 149.61L18.9839 149.61L18.6304 149.963ZM18.4283 149.65L18.0118 149.374L17.8716 149.585L17.9588 149.822L18.4283 149.65ZM18.5001 160V151.151H17.5001V160H18.5001ZM21.0001 162.5C19.6194 162.5 18.5001 161.381 18.5001 160H17.5001C17.5001 161.933 19.0671 163.5 21.0001 163.5V162.5ZM35.0001 162.5H21.0001V163.5H35.0001V162.5ZM37.5001 160C37.5001 161.381 36.3808 162.5 35.0001 162.5V163.5C36.9331 163.5 38.5001 161.933 38.5001 160H37.5001ZM37.5001 151.152V160H38.5001V151.152H37.5001ZM37.6466 150.798L30.3744 158.071L31.0815 158.778L38.3537 151.506L37.6466 150.798ZM30.3744 158.071C29.0633 159.382 26.9377 159.382 25.6266 158.071L24.9195 158.778C26.6211 160.479 29.3799 160.479 31.0815 158.778L30.3744 158.071ZM25.6266 158.071L18.3537 150.798L17.6466 151.505L24.9195 158.778L25.6266 158.071ZM37.7241 150.317C37.8697 150.171 37.9757 150.003 38.0418 149.823L37.1032 149.478C37.0875 149.521 37.0608 149.566 37.017 149.61L37.7241 150.317ZM30.1723 157.869L37.7241 150.317L37.017 149.61L29.4652 157.162L30.1723 157.869ZM25.8287 157.869C27.0281 159.068 28.9729 159.068 30.1723 157.869L29.4652 157.162C28.6563 157.97 27.3447 157.97 26.5358 157.162L25.8287 157.869ZM18.2768 150.317L25.8287 157.869L26.5358 157.162L18.9839 149.61L18.2768 150.317ZM17.9588 149.822C18.0249 150.002 18.131 150.171 18.2768 150.317L18.9839 149.61C18.9401 149.566 18.9134 149.521 18.8977 149.478L17.9588 149.822ZM20.5716 148C19.5024 148 18.5612 148.547 18.0118 149.374L18.8447 149.927C19.2166 149.367 19.8513 149 20.5716 149V148ZM35.4288 148H20.5716V149H35.4288V148ZM37.989 149.374C37.4398 148.547 36.4983 148 35.4288 148V149C36.1492 149 36.7841 149.367 37.156 149.927L37.989 149.374Z" fill="white" fill-opacity="0.3" mask="url(#path-7-inside-1_64_608)"/>
<path d="M57.28 161H58.48V154.92H60.08V153.8H58.48V153.24C58.48 152.424 58.96 151.96 59.68 151.96C59.792 151.96 59.904 151.992 59.968 152.008L60.08 152.04V151L59.904 150.92C59.776 150.872 59.6 150.84 59.36 150.84C58.256 150.84 57.28 151.8 57.28 153.24V153.8H56.4V154.92H57.28V161ZM61.1262 161H62.3262V156.92C62.3262 155.704 63.1102 154.92 64.2463 154.92H64.5662V153.72H64.4062C63.7183 153.72 63.2222 153.928 62.8542 154.168C62.6463 154.296 62.4702 154.44 62.3262 154.6L62.0062 153.8H61.1262V161ZM68.4831 159.96C67.3631 159.96 66.3231 158.936 66.3231 157.4C66.3231 155.864 67.3631 154.84 68.4831 154.84C69.5871 154.84 70.6431 155.864 70.6431 157.4C70.6431 158.936 69.5871 159.96 68.4831 159.96ZM68.4831 161.08C70.3391 161.08 71.8431 159.56 71.8431 157.4C71.8431 155.24 70.3391 153.72 68.4831 153.72C66.6271 153.72 65.1231 155.24 65.1231 157.4C65.1231 159.56 66.6271 161.08 68.4831 161.08ZM73.1269 161H74.3269V156.84C74.3269 155.624 75.1109 154.84 76.2469 154.84C77.1909 154.84 78.0069 155.64 78.0069 156.84V161H79.2069V156.84C79.2069 155 77.9269 153.72 76.4069 153.72C75.7189 153.72 75.2229 153.928 74.8549 154.168C74.6469 154.296 74.4709 154.44 74.3269 154.6L74.0069 153.8H73.1269V161ZM81.445 158.68C81.445 160.12 82.421 161.08 83.525 161.08C83.749 161.08 83.925 161.048 84.069 161C84.133 160.984 84.197 160.952 84.245 160.92V159.88L84.133 159.928C84.053 159.944 83.957 159.96 83.845 159.96C83.125 159.96 82.645 159.496 82.645 158.68V154.92H84.245V153.8H82.645V151.88H81.605V152.92C81.605 153.512 81.317 153.8 80.725 153.8H80.165V154.92H81.445V158.68ZM88.4137 159.96C87.2937 159.96 86.2537 158.936 86.2537 157.4C86.2537 155.864 87.2937 154.84 88.4137 154.84C89.5177 154.84 90.5738 155.864 90.5738 157.4C90.5738 158.936 89.5177 159.96 88.4137 159.96ZM88.4137 161.08C90.2698 161.08 91.7737 159.56 91.7737 157.4C91.7737 155.24 90.2698 153.72 88.4137 153.72C86.5577 153.72 85.0537 155.24 85.0537 157.4C85.0537 159.56 86.5577 161.08 88.4137 161.08ZM95.0575 161H96.1775L99.0575 153.8H97.7775L95.6175 159.32L93.4575 153.8H92.1775L95.0575 161ZM101.941 161H103.061L105.941 153.8H104.661L102.501 159.32L100.341 153.8H99.0606L101.941 161ZM106.824 161H108.024V153.8H106.824V161ZM106.664 151.768C106.664 152.2 106.984 152.52 107.416 152.52C107.864 152.52 108.184 152.2 108.184 151.768C108.184 151.32 107.864 151 107.416 151C106.984 151 106.664 151.32 106.664 151.768ZM110.345 158.68C110.345 160.12 111.321 161.08 112.425 161.08C112.649 161.08 112.825 161.048 112.969 161C113.033 160.984 113.097 160.952 113.145 160.92V159.88L113.033 159.928C112.953 159.944 112.857 159.96 112.745 159.96C112.025 159.96 111.545 159.496 111.545 158.68V154.92H113.145V153.8H111.545V151.88H110.505V152.92C110.505 153.512 110.217 153.8 109.625 153.8H109.065V154.92H110.345V158.68ZM118.994 161H119.874V156.2C119.874 154.856 118.754 153.72 117.154 153.72C115.554 153.72 114.61 154.68 114.434 155.88H115.714C115.89 155.24 116.258 154.84 117.154 154.84C118.05 154.84 118.674 155.48 118.674 156.2V156.6C115.074 156.6 114.114 157.56 114.114 158.92C114.114 160.12 115.074 161.08 116.514 161.08C117.234 161.08 117.762 160.888 118.13 160.648C118.338 160.52 118.514 160.376 118.674 160.2L118.994 161ZM118.674 158.28C118.674 159.08 117.794 159.96 116.514 159.96C115.794 159.96 115.314 159.496 115.314 159C115.314 158.2 115.794 157.72 118.674 157.72V158.28ZM121.631 161H122.831V150.92H121.631V161ZM124.669 161H125.869V153.8H124.669V161ZM124.509 151.768C124.509 152.2 124.829 152.52 125.261 152.52C125.709 152.52 126.029 152.2 126.029 151.768C126.029 151.32 125.709 151 125.261 151C124.829 151 124.509 151.32 124.509 151.768ZM127.95 163.56L128.094 163.608C128.206 163.624 128.302 163.64 128.43 163.64C129.374 163.64 129.934 163.096 130.51 161.64L133.63 153.8H132.35L130.19 159.32L128.03 153.8H126.75L129.55 160.84L129.23 161.64C128.974 162.28 128.67 162.6 127.95 162.6V163.56ZM141.713 161.16C141.521 161.304 141.313 161.416 141.073 161.528C140.673 161.704 140.113 161.88 139.473 161.88C137.169 161.88 135.153 159.88 135.153 157.4C135.153 154.92 137.169 152.92 139.473 152.92C141.777 152.92 143.793 154.936 143.793 157.24C143.793 158.728 143.313 159.24 142.673 159.24C142.177 159.24 141.793 158.856 141.793 157.912V154.76H141.073L140.833 155.56C140.721 155.4 140.577 155.256 140.417 155.128C140.113 154.888 139.713 154.68 139.153 154.68C137.873 154.68 136.753 155.8 136.753 157.4C136.753 159 137.873 160.12 139.153 160.12C139.745 160.12 140.225 159.88 140.529 159.64C140.705 159.496 140.865 159.336 140.993 159.144C141.089 159.336 141.217 159.496 141.377 159.64C141.649 159.88 142.049 160.12 142.673 160.12C143.873 160.12 144.833 159.144 144.833 157.24C144.833 154.424 142.417 152.04 139.473 152.04C136.529 152.04 134.113 154.456 134.113 157.4C134.113 160.344 136.529 162.76 139.473 162.76C140.193 162.76 140.881 162.568 141.377 162.36C141.665 162.248 141.937 162.104 142.193 161.96L141.713 161.16ZM139.313 159.16C138.417 159.16 137.713 158.44 137.713 157.4C137.713 156.36 138.417 155.64 139.313 155.64C140.257 155.64 140.913 156.296 140.913 157.4C140.913 158.504 140.257 159.16 139.313 159.16ZM146.357 163.56L146.501 163.608C146.613 163.624 146.709 163.64 146.837 163.64C147.781 163.64 148.341 163.096 148.917 161.64L152.037 153.8H150.757L148.597 159.32L146.437 153.8H145.157L147.957 160.84L147.637 161.64C147.381 162.28 147.077 162.6 146.357 162.6V163.56ZM157.48 161H158.36V156.2C158.36 154.856 157.24 153.72 155.64 153.72C154.04 153.72 153.096 154.68 152.92 155.88H154.2C154.376 155.24 154.744 154.84 155.64 154.84C156.536 154.84 157.16 155.48 157.16 156.2V156.6C153.56 156.6 152.6 157.56 152.6 158.92C152.6 160.12 153.56 161.08 155 161.08C155.72 161.08 156.248 160.888 156.616 160.648C156.824 160.52 157 160.376 157.16 160.2L157.48 161ZM157.16 158.28C157.16 159.08 156.28 159.96 155 159.96C154.28 159.96 153.8 159.496 153.8 159C153.8 158.2 154.28 157.72 157.16 157.72V158.28ZM160.037 161H161.237V156.84C161.237 155.624 162.021 154.84 163.157 154.84C164.101 154.84 164.917 155.64 164.917 156.84V161H166.117V156.84C166.117 155 164.837 153.72 163.317 153.72C162.629 153.72 162.133 153.928 161.765 154.168C161.557 154.296 161.381 154.44 161.237 154.6L160.917 153.8H160.037V161ZM170.756 159.96C169.556 159.96 168.516 158.936 168.516 157.4C168.516 155.864 169.556 154.84 170.756 154.84C171.956 154.84 172.996 155.864 172.996 157.4C172.996 158.936 171.956 159.96 170.756 159.96ZM173.156 161H174.036V150.92H172.836V154.68C172.676 154.504 172.5 154.344 172.292 154.2C171.924 153.96 171.396 153.72 170.676 153.72C168.82 153.72 167.316 155.24 167.316 157.4C167.316 159.56 168.82 161.08 170.676 161.08C171.396 161.08 171.924 160.888 172.292 160.648C172.5 160.52 172.676 160.376 172.836 160.2L173.156 161ZM180.602 159.08C180.362 159.416 179.786 159.96 178.842 159.96C177.706 159.96 176.762 159 176.682 157.96H181.962L181.994 157.784C182.01 157.672 182.042 157.528 182.042 157.32C182.042 155.144 180.522 153.72 178.762 153.72C177.018 153.72 175.402 155.24 175.402 157.4C175.402 159.56 176.922 161.08 178.842 161.08C180.442 161.08 181.402 160.12 181.882 159.08H180.602ZM176.682 156.92C176.858 155.72 177.722 154.84 178.762 154.84C179.802 154.84 180.666 155.72 180.842 156.92H176.682ZM182.287 161H183.647L185.567 158.2L187.487 161H188.847L186.287 157.32L188.687 153.8H187.327L185.567 156.44L183.807 153.8H182.447L184.847 157.32L182.287 161ZM189.09 160.28C189.09 160.776 189.394 161.08 189.89 161.08C190.386 161.08 190.69 160.776 190.69 160.28C190.69 159.784 190.386 159.48 189.89 159.48C189.394 159.48 189.09 159.784 189.09 160.28ZM191.969 161H193.169V156.92C193.169 155.704 193.953 154.92 195.089 154.92H195.409V153.72H195.249C194.561 153.72 194.065 153.928 193.697 154.168C193.489 154.296 193.313 154.44 193.169 154.6L192.849 153.8H191.969V161ZM196.446 157.96C196.446 159.8 197.726 161.08 199.246 161.08C199.934 161.08 200.43 160.888 200.798 160.648C201.006 160.52 201.182 160.376 201.326 160.2L201.646 161H202.526V153.8H201.326V157.96C201.326 159.176 200.542 159.96 199.406 159.96C198.43 159.96 197.646 159.16 197.646 157.96V153.8H196.446V157.96Z" fill="white"/>
<path d="M37.0399 187.025C37.0399 187.025 39.1674 186.203 38.9894 188.2C38.9308 189.022 38.3991 191.901 37.9851 195.014L36.5668 204.237C36.5668 204.237 36.4485 205.588 35.3845 205.823C34.321 206.058 32.7253 205.001 32.4296 204.766C32.193 204.59 27.9972 201.946 26.5198 200.654C26.1058 200.301 25.6326 199.596 26.5789 198.774L32.7839 192.899C33.4931 192.195 34.2022 190.55 31.2473 192.547L22.9729 198.127C22.9729 198.127 22.0272 198.715 20.2546 198.187L16.4125 197.011C16.4125 197.011 14.9942 196.13 17.4174 195.249C23.3277 192.488 30.5973 189.669 37.0388 187.025H37.0399Z" fill="white"/>
<path d="M57.28 201H58.48V194.92H60.08V193.8H58.48V193.24C58.48 192.424 58.96 191.96 59.68 191.96C59.792 191.96 59.904 191.992 59.968 192.008L60.08 192.04V191L59.904 190.92C59.776 190.872 59.6 190.84 59.36 190.84C58.256 190.84 57.28 191.8 57.28 193.24V193.8H56.4V194.92H57.28V201ZM61.1262 201H62.3262V196.92C62.3262 195.704 63.1102 194.92 64.2463 194.92H64.5662V193.72H64.4062C63.7183 193.72 63.2222 193.928 62.8542 194.168C62.6463 194.296 62.4702 194.44 62.3262 194.6L62.0062 193.8H61.1262V201ZM68.4831 199.96C67.3631 199.96 66.3231 198.936 66.3231 197.4C66.3231 195.864 67.3631 194.84 68.4831 194.84C69.5871 194.84 70.6431 195.864 70.6431 197.4C70.6431 198.936 69.5871 199.96 68.4831 199.96ZM68.4831 201.08C70.3391 201.08 71.8431 199.56 71.8431 197.4C71.8431 195.24 70.3391 193.72 68.4831 193.72C66.6271 193.72 65.1231 195.24 65.1231 197.4C65.1231 199.56 66.6271 201.08 68.4831 201.08ZM73.1269 201H74.3269V196.84C74.3269 195.624 75.1109 194.84 76.2469 194.84C77.1909 194.84 78.0069 195.64 78.0069 196.84V201H79.2069V196.84C79.2069 195 77.9269 193.72 76.4069 193.72C75.7189 193.72 75.2229 193.928 74.8549 194.168C74.6469 194.296 74.4709 194.44 74.3269 194.6L74.0069 193.8H73.1269V201ZM81.445 198.68C81.445 200.12 82.421 201.08 83.525 201.08C83.749 201.08 83.925 201.048 84.069 201C84.133 200.984 84.197 200.952 84.245 200.92V199.88L84.133 199.928C84.053 199.944 83.957 199.96 83.845 199.96C83.125 199.96 82.645 199.496 82.645 198.68V194.92H84.245V193.8H82.645V191.88H81.605V192.92C81.605 193.512 81.317 193.8 80.725 193.8H80.165V194.92H81.445V198.68ZM88.4137 199.96C87.2937 199.96 86.2537 198.936 86.2537 197.4C86.2537 195.864 87.2937 194.84 88.4137 194.84C89.5177 194.84 90.5738 195.864 90.5738 197.4C90.5738 198.936 89.5177 199.96 88.4137 199.96ZM88.4137 201.08C90.2698 201.08 91.7737 199.56 91.7737 197.4C91.7737 195.24 90.2698 193.72 88.4137 193.72C86.5577 193.72 85.0537 195.24 85.0537 197.4C85.0537 199.56 86.5577 201.08 88.4137 201.08ZM95.0575 201H96.1775L99.0575 193.8H97.7775L95.6175 199.32L93.4575 193.8H92.1775L95.0575 201ZM98.5806 203.64H103.381V202.68H98.5806V203.64ZM105.777 201H106.897L109.777 193.8H108.497L106.337 199.32L104.177 193.8H102.897L105.777 201Z" fill="white"/>
<path d="M28 225C21.9225 225 17 229.818 17 235.766C17 240.529 20.1487 244.553 24.5212 245.979C25.0712 246.074 25.2775 245.751 25.2775 245.468C25.2775 245.212 25.2638 244.365 25.2638 243.463C22.5 243.961 21.785 242.804 21.565 242.198C21.4412 241.889 20.905 240.933 20.4375 240.677C20.0525 240.476 19.5025 239.978 20.4238 239.964C21.29 239.951 21.9088 240.745 22.115 241.068C23.105 242.696 24.6863 242.238 25.3188 241.956C25.415 241.256 25.7037 240.785 26.02 240.516C23.5725 240.247 21.015 239.318 21.015 235.2C21.015 234.03 21.4413 233.061 22.1425 232.307C22.0325 232.038 21.6475 230.935 22.2525 229.454C22.2525 229.454 23.1738 229.172 25.2775 230.558C26.1575 230.316 27.0925 230.194 28.0275 230.194C28.9625 230.194 29.8975 230.316 30.7775 230.558C32.8813 229.158 33.8025 229.454 33.8025 229.454C34.4075 230.935 34.0225 232.038 33.9125 232.307C34.6138 233.061 35.04 234.016 35.04 235.2C35.04 239.332 32.4688 240.247 30.0213 240.516C30.42 240.852 30.7638 241.498 30.7638 242.508C30.7638 243.947 30.75 245.105 30.75 245.468C30.75 245.751 30.9563 246.087 31.5063 245.979C33.6901 245.258 35.5877 243.885 36.932 242.052C38.2764 240.22 38.9996 238.021 39 235.766C39 229.818 34.0775 225 28 225Z" fill="white"/>
<path d="M57.12 241H58.32V236.84C58.32 235.624 59.104 234.84 60.24 234.84C61.184 234.84 62 235.64 62 236.84V241H63.2V236.84C63.2 235 61.92 233.72 60.4 233.72C59.712 233.72 59.216 233.96 58.848 234.2C58.64 234.344 58.464 234.504 58.32 234.68V230.92H57.12V241ZM65.4362 238.68C65.4362 240.12 66.4123 241.08 67.5162 241.08C67.7403 241.08 67.9163 241.048 68.0602 241C68.1242 240.984 68.1883 240.952 68.2362 240.92V239.88L68.1242 239.928C68.0443 239.944 67.9482 239.96 67.8362 239.96C67.1163 239.96 66.6363 239.496 66.6363 238.68V234.92H68.2362V233.8H66.6363V231.88H65.5962V232.92C65.5962 233.512 65.3082 233.8 64.7162 233.8H64.1562V234.92H65.4362V238.68ZM70.2412 238.68C70.2412 240.12 71.2172 241.08 72.3212 241.08C72.5452 241.08 72.7213 241.048 72.8652 241C72.9292 240.984 72.9932 240.952 73.0412 240.92V239.88L72.9292 239.928C72.8492 239.944 72.7532 239.96 72.6412 239.96C71.9212 239.96 71.4412 239.496 71.4412 238.68V234.92H73.0412V233.8H71.4412V231.88H70.4012V232.92C70.4012 233.512 70.1132 233.8 69.5212 233.8H68.9612V234.92H70.2412V238.68ZM77.7663 239.96C76.5663 239.96 75.5263 238.936 75.5263 237.4C75.5263 235.864 76.5663 234.84 77.7663 234.84C78.9663 234.84 80.0063 235.864 80.0063 237.4C80.0063 238.936 78.9663 239.96 77.7663 239.96ZM74.4863 243.56H75.6863V240.12C75.8303 240.296 76.0223 240.456 76.2303 240.6C76.5983 240.84 77.1263 241.08 77.8463 241.08C79.7023 241.08 81.2063 239.56 81.2063 237.4C81.2063 235.24 79.7023 233.72 77.8463 233.72C77.1263 233.72 76.5983 233.928 76.2303 234.168C76.0223 234.296 75.8303 234.44 75.6863 234.6L75.3663 233.8H74.4863V243.56ZM81.9987 238.84C82.0787 240.12 83.0387 241.08 84.6387 241.08C86.1587 241.08 87.1187 240.12 87.1187 238.92C87.1187 236.2 83.3587 237.416 83.3587 235.8C83.3587 235.304 83.8387 234.84 84.5587 234.84C85.3747 234.84 85.7587 235.24 85.8387 235.88H87.0387C86.9587 234.6 86.0947 233.72 84.5587 233.72C83.1187 233.72 82.1587 234.696 82.1587 235.8C82.1587 238.536 85.9187 237.304 85.9187 238.92C85.9187 239.48 85.4547 239.96 84.6387 239.96C83.7427 239.96 83.2787 239.48 83.1987 238.84H81.9987ZM87.9912 240.28C87.9912 240.776 88.2952 241.08 88.7912 241.08C89.2872 241.08 89.5912 240.776 89.5912 240.28C89.5912 239.784 89.2872 239.48 88.7912 239.48C88.2952 239.48 87.9912 239.784 87.9912 240.28ZM87.9912 234.6C87.9912 235.096 88.2952 235.4 88.7912 235.4C89.2872 235.4 89.5912 235.096 89.5912 234.6C89.5912 234.104 89.2872 233.8 88.7912 233.8C88.2952 233.8 87.9912 234.104 87.9912 234.6ZM89.83 243.88H90.95L95.11 230.92H93.99L89.83 243.88ZM92.8694 243.88H93.9894L98.1494 230.92H97.0294L92.8694 243.88ZM98.7906 241.56C99.0946 242.76 100.103 243.72 101.751 243.72C103.671 243.72 104.951 242.44 104.951 240.76V233.8H104.071L103.751 234.6C103.607 234.44 103.447 234.296 103.255 234.168C102.919 233.928 102.391 233.72 101.671 233.72C99.8306 233.72 98.3906 235.144 98.3906 237.24C98.3906 239.336 99.8306 240.76 101.671 240.76C102.391 240.76 102.919 240.52 103.255 240.28C103.447 240.136 103.607 239.976 103.751 239.8V240.76C103.751 241.8 102.967 242.6 101.751 242.6C100.711 242.6 100.231 242.12 99.9906 241.56H98.7906ZM101.751 239.64C100.551 239.64 99.5906 238.68 99.5906 237.24C99.5906 235.8 100.551 234.84 101.751 234.84C102.951 234.84 103.911 235.8 103.911 237.24C103.911 238.68 102.951 239.64 101.751 239.64ZM106.707 241H107.907V233.8H106.707V241ZM106.547 231.768C106.547 232.2 106.867 232.52 107.299 232.52C107.747 232.52 108.067 232.2 108.067 231.768C108.067 231.32 107.747 231 107.299 231C106.867 231 106.547 231.32 106.547 231.768ZM110.228 238.68C110.228 240.12 111.204 241.08 112.308 241.08C112.532 241.08 112.708 241.048 112.852 241C112.916 240.984 112.98 240.952 113.028 240.92V239.88L112.916 239.928C112.836 239.944 112.74 239.96 112.628 239.96C111.908 239.96 111.428 239.496 111.428 238.68V234.92H113.028V233.8H111.428V231.88H110.388V232.92C110.388 233.512 110.1 233.8 109.508 233.8H108.948V234.92H110.228V238.68ZM114.553 241H115.753V236.84C115.753 235.624 116.537 234.84 117.673 234.84C118.617 234.84 119.433 235.64 119.433 236.84V241H120.633V236.84C120.633 235 119.353 233.72 117.833 233.72C117.145 233.72 116.649 233.96 116.281 234.2C116.073 234.344 115.897 234.504 115.753 234.68V230.92H114.553V241ZM122.309 237.96C122.309 239.8 123.589 241.08 125.109 241.08C125.797 241.08 126.293 240.888 126.661 240.648C126.869 240.52 127.045 240.376 127.189 240.2L127.509 241H128.389V233.8H127.189V237.96C127.189 239.176 126.405 239.96 125.269 239.96C124.293 239.96 123.509 239.16 123.509 237.96V233.8H122.309V237.96ZM133.506 239.96C132.306 239.96 131.266 238.936 131.266 237.4C131.266 235.864 132.306 234.84 133.506 234.84C134.706 234.84 135.746 235.864 135.746 237.4C135.746 238.936 134.706 239.96 133.506 239.96ZM130.226 241H131.106L131.426 240.2C131.57 240.376 131.762 240.52 131.97 240.648C132.338 240.888 132.866 241.08 133.586 241.08C135.442 241.08 136.946 239.56 136.946 237.4C136.946 235.24 135.442 233.72 133.586 233.72C132.866 233.72 132.338 233.96 131.97 234.2C131.762 234.344 131.57 234.504 131.426 234.68V230.92H130.226V241ZM137.752 240.28C137.752 240.776 138.056 241.08 138.552 241.08C139.048 241.08 139.352 240.776 139.352 240.28C139.352 239.784 139.048 239.48 138.552 239.48C138.056 239.48 137.752 239.784 137.752 240.28ZM145.431 238.44C145.175 239.24 144.455 239.96 143.511 239.96C142.391 239.96 141.351 238.936 141.351 237.4C141.351 235.864 142.391 234.84 143.511 234.84C144.455 234.84 145.175 235.56 145.431 236.36H146.631C146.295 234.904 145.111 233.72 143.511 233.72C141.655 233.72 140.151 235.24 140.151 237.4C140.151 239.56 141.655 241.08 143.511 241.08C145.111 241.08 146.295 239.896 146.631 238.44H145.431ZM150.706 239.96C149.586 239.96 148.546 238.936 148.546 237.4C148.546 235.864 149.586 234.84 150.706 234.84C151.81 234.84 152.866 235.864 152.866 237.4C152.866 238.936 151.81 239.96 150.706 239.96ZM150.706 241.08C152.562 241.08 154.066 239.56 154.066 237.4C154.066 235.24 152.562 233.72 150.706 233.72C148.85 233.72 147.346 235.24 147.346 237.4C147.346 239.56 148.85 241.08 150.706 241.08ZM155.35 241H156.55V236.68C156.55 235.608 157.286 234.84 158.07 234.84C158.886 234.84 159.51 235.464 159.51 236.68V241H160.71V236.68C160.71 235.544 161.414 234.84 162.23 234.84C163.046 234.84 163.67 235.464 163.67 236.68V241H164.87V236.68C164.87 234.824 163.75 233.72 162.47 233.72C161.702 233.72 161.19 234.04 160.822 234.36C160.614 234.552 160.454 234.76 160.31 235C160.198 234.76 160.038 234.552 159.846 234.36C159.526 234.04 159.03 233.72 158.31 233.72C157.686 233.72 157.286 233.928 156.982 234.168C156.806 234.296 156.662 234.44 156.55 234.6L156.23 233.8H155.35V241ZM165.506 243.88H166.626L170.786 230.92H169.666L165.506 243.88Z" fill="white"/>
</svg>
